<svg width="26" height="32" viewBox="0 0 26 32" fill="none" xmlns="http://www.w3.org/2000/svg">
<path d="M18.4683 31.1423H6.88036C2.5059 31.1423 0 28.6364 0 24.262V10.1391C0 5.57638 2.31759 3.25879 6.88036 3.25879C7.47424 3.25879 7.96673 3.75128 7.96673 4.34516C7.96673 4.92456 8.19849 5.47499 8.60407 5.88057C9.00965 6.28615 9.56007 6.51791 10.1395 6.51791H15.2092C16.4115 6.51791 17.382 5.54741 17.382 4.34516C17.382 3.75128 17.8744 3.25879 18.4683 3.25879C23.0311 3.25879 25.3487 5.57638 25.3487 10.1391V24.262C25.3487 28.6364 22.8428 31.1423 18.4683 31.1423ZM5.93881 5.4605C3.65018 5.64881 2.17274 6.67724 2.17274 10.1391V24.262C2.17274 27.4776 3.6647 28.9696 6.88036 28.9696H18.4683C21.684 28.9696 23.1759 27.4776 23.1759 24.262V10.1391C23.1759 6.67724 21.6985 5.66329 19.4098 5.4605C18.9174 7.31458 17.2226 8.69065 15.2092 8.69065H10.1395C8.98068 8.69065 7.89432 8.24162 7.06866 7.41597C6.51823 6.86554 6.14159 6.19924 5.93881 5.4605Z" fill="white"/>
<path d="M15.2092 8.69098H10.1394C8.98064 8.69098 7.89426 8.24194 7.06862 7.4163C6.24298 6.59064 5.79395 5.50429 5.79395 4.34549C5.79395 1.95547 7.74942 0 10.1394 0H15.2092C16.368 0 17.4543 0.449034 18.28 1.27468C19.1056 2.10032 19.5547 3.18669 19.5547 4.34549C19.5547 6.73551 17.5992 8.69098 15.2092 8.69098ZM10.1394 2.17274C8.93718 2.17274 7.96669 3.14324 7.96669 4.34549C7.96669 4.92489 8.19845 5.47532 8.60403 5.88089C9.00961 6.28647 9.56004 6.51823 10.1394 6.51823H15.2092C16.4114 6.51823 17.3819 5.54774 17.3819 4.34549C17.3819 3.76609 17.1502 3.21566 16.7446 2.81008C16.339 2.4045 15.7886 2.17274 15.2092 2.17274H10.1394Z" fill="white"/>
<path d="M12.6743 18.1058H6.88032C6.28643 18.1058 5.79395 17.6134 5.79395 17.0195C5.79395 16.4256 6.28643 15.9331 6.88032 15.9331H12.6743C13.2682 15.9331 13.7607 16.4256 13.7607 17.0195C13.7607 17.6134 13.2682 18.1058 12.6743 18.1058Z" fill="white"/>
<path d="M18.4683 23.8998H6.88032C6.28643 23.8998 5.79395 23.4073 5.79395 22.8134C5.79395 22.2195 6.28643 21.7271 6.88032 21.7271H18.4683C19.0622 21.7271 19.5547 22.2195 19.5547 22.8134C19.5547 23.4073 19.0622 23.8998 18.4683 23.8998Z" fill="white"/>
</svg>
