<svg width="34" height="29" viewBox="0 0 34 29" fill="none" xmlns="http://www.w3.org/2000/svg">
<path d="M1 27.8213H32.0562" stroke="white" stroke-width="2" stroke-miterlimit="10" stroke-linecap="round" stroke-linejoin="round"/>
<path d="M27.5096 27.8351V21.5391" stroke="white" stroke-width="2" stroke-miterlimit="10" stroke-linecap="round" stroke-linejoin="round"/>
<path d="M27.5384 12.1382C25.8162 12.1382 24.4327 13.5216 24.4327 15.2438V18.4482C24.4327 20.1705 25.8162 21.5539 27.5384 21.5539C29.2606 21.5539 30.644 20.1705 30.644 18.4482V15.2438C30.644 13.5216 29.2606 12.1382 27.5384 12.1382Z" stroke="white" stroke-width="2" stroke-miterlimit="10" stroke-linecap="round" stroke-linejoin="round"/>
<path d="M2.55225 5.2632C2.55225 2.42579 3.96396 1 6.77314 1H15.5676C18.3768 1 19.7743 2.42579 19.7743 5.2632V27.8213" stroke="white" stroke-width="2" stroke-miterlimit="10" stroke-linecap="round" stroke-linejoin="round"/>
<path d="M2.55225 27.8207V10.895" stroke="white" stroke-width="2" stroke-miterlimit="10" stroke-linecap="round" stroke-linejoin="round"/>
<path d="M7.77698 8.41113H14.7647" stroke="white" stroke-width="2" stroke-miterlimit="10" stroke-linecap="round" stroke-linejoin="round"/>
<path d="M7.77698 13.7051H14.7647" stroke="white" stroke-width="2" stroke-miterlimit="10" stroke-linecap="round" stroke-linejoin="round"/>
<path d="M11.2344 27.821V22.5273" stroke="white" stroke-width="2" stroke-miterlimit="10" stroke-linecap="round" stroke-linejoin="round"/>
</svg>
