<svg width="43" height="42" viewBox="0 0 43 42" fill="none" xmlns="http://www.w3.org/2000/svg">
<path d="M25.0229 15.6V21.4H30.2229C30.6229 21.4 30.8229 21.8 30.8229 22.2L30.0229 26C30.0229 26.2 29.6229 26.4 29.4229 26.4H25.0229V41H19.0229V26.6H15.6229C15.2229 26.6 15.0229 26.4 15.0229 26V22.2C15.0229 21.8 15.2229 21.6 15.6229 21.6H19.0229V15C19.0229 11.6 21.6229 9 25.0229 9H30.4229C30.8229 9 31.0229 9.2 31.0229 9.6V14.4C31.0229 14.8 30.8229 15 30.4229 15H25.6229C25.2229 15 25.0229 15.2 25.0229 15.6Z" stroke="white" stroke-width="2" stroke-miterlimit="10" stroke-linecap="round"/>
<path d="M27.0229 41H15.0229C5.02295 41 1.02295 37 1.02295 27V15C1.02295 5 5.02295 1 15.0229 1H27.0229C37.0229 1 41.0229 5 41.0229 15V27C41.0229 37 37.0229 41 27.0229 41Z" stroke="white" stroke-width="2" stroke-linecap="round" stroke-linejoin="round"/>
</svg>
