<svg width="44" height="44" viewBox="0 0 44 44" fill="none" xmlns="http://www.w3.org/2000/svg">
<path d="M16.0234 42H28.0234C38.0234 42 42.0234 38 42.0234 28V16C42.0234 6 38.0234 2 28.0234 2H16.0234C6.02344 2 2.02344 6 2.02344 16V28C2.02344 38 6.02344 42 16.0234 42Z" stroke="white" stroke-width="3" stroke-linecap="round" stroke-linejoin="round"/>
<path d="M22.0234 29C25.8894 29 29.0234 25.866 29.0234 22C29.0234 18.134 25.8894 15 22.0234 15C18.1574 15 15.0234 18.134 15.0234 22C15.0234 25.866 18.1574 29 22.0234 29Z" stroke="white" stroke-width="3" stroke-linecap="round" stroke-linejoin="round"/>
<path d="M33.2959 12H33.3196" stroke="white" stroke-width="3" stroke-linecap="round" stroke-linejoin="round"/>
</svg>
