<svg width="43" height="42" viewBox="0 0 43 42" fill="none" xmlns="http://www.w3.org/2000/svg">
<path d="M15.0229 41H27.0229C37.0229 41 41.0229 37 41.0229 27V15C41.0229 5 37.0229 1 27.0229 1H15.0229C5.02295 1 1.02295 5 1.02295 15V27C1.02295 37 5.02295 41 15.0229 41Z" stroke="white" stroke-width="2" stroke-linecap="round" stroke-linejoin="round"/>
<path d="M21.023 28C24.889 28 28.023 24.866 28.023 21C28.023 17.134 24.889 14 21.023 14C17.157 14 14.023 17.134 14.023 21C14.023 24.866 17.157 28 21.023 28Z" stroke="white" stroke-width="2" stroke-linecap="round" stroke-linejoin="round"/>
<path d="M32.2952 11H32.3188" stroke="white" stroke-width="2" stroke-linecap="round" stroke-linejoin="round"/>
</svg>
