<svg width="12" height="13" viewBox="0 0 12 13" fill="none" xmlns="http://www.w3.org/2000/svg">
<path d="M9.05871 12.0224C8.42684 12.0224 7.76142 11.8714 7.07363 11.5806C6.40261 11.2954 5.726 10.904 5.06617 10.4287C4.41193 9.94781 3.78006 9.411 3.18173 8.82386C2.589 8.22554 2.05219 7.59366 1.57689 6.94501C1.09599 6.274 0.710158 5.60298 0.43616 4.95433C0.145387 4.26095 0 3.58994 0 2.95806C0 2.5219 0.0782852 2.10811 0.229264 1.72227C0.385834 1.32526 0.637465 0.956198 0.978565 0.637465C1.40913 0.212488 1.90121 0 2.42684 0C2.64492 0 2.86859 0.0503262 3.05871 0.139795C3.27679 0.240447 3.46132 0.391426 3.59553 0.592731L4.89282 2.42125C5.01025 2.58341 5.09972 2.73998 5.16123 2.89655C5.23392 3.06431 5.27307 3.23206 5.27307 3.39422C5.27307 3.60671 5.21156 3.81361 5.09413 4.00932C5.01025 4.1603 4.88164 4.32246 4.71948 4.48462L4.33924 4.88164C4.34483 4.89842 4.35042 4.9096 4.35601 4.92078C4.42311 5.03821 4.55732 5.23952 4.81454 5.54147C5.08854 5.85461 5.34576 6.1398 5.60298 6.40261C5.9329 6.72693 6.2069 6.98416 6.46412 7.19665C6.78285 7.46505 6.98975 7.59925 7.11277 7.66076L7.10158 7.68872L7.50979 7.28611C7.68313 7.11277 7.85089 6.98416 8.01305 6.90028C8.3206 6.71016 8.71202 6.67661 9.10345 6.83877C9.24884 6.90028 9.40541 6.98416 9.57316 7.10158L11.4296 8.42125C11.6365 8.56104 11.7875 8.73998 11.877 8.95247C11.9609 9.16496 12 9.36067 12 9.55639C12 9.82479 11.9385 10.0932 11.8211 10.3448C11.7036 10.5965 11.5582 10.8145 11.3737 11.0158C11.055 11.3681 10.7083 11.6198 10.3057 11.7819C9.91985 11.9385 9.50047 12.0224 9.05871 12.0224ZM2.42684 0.83877C2.11929 0.83877 1.83411 0.972973 1.56011 1.24138C1.30289 1.48183 1.12395 1.74464 1.01212 2.02982C0.894688 2.3206 0.83877 2.62815 0.83877 2.95806C0.83877 3.4781 0.961789 4.04287 1.20783 4.62442C1.45946 5.21715 1.81174 5.83225 2.25909 6.44734C2.70643 7.06244 3.21528 7.66076 3.77446 8.22554C4.33364 8.77912 4.93756 9.29357 5.55825 9.74651C6.16216 10.1883 6.78285 10.5461 7.39795 10.8034C8.35415 11.2116 9.24884 11.3066 9.98695 10.9991C10.2721 10.8816 10.5238 10.7027 10.753 10.4455C10.8816 10.3057 10.9823 10.1547 11.0662 9.97577C11.1333 9.83597 11.1668 9.69059 11.1668 9.5452C11.1668 9.45573 11.15 9.36626 11.1053 9.26561C11.0885 9.23206 11.055 9.17055 10.9487 9.09786L9.09227 7.77819C8.98043 7.69991 8.87978 7.64399 8.78472 7.60485C8.6617 7.55452 8.61137 7.50419 8.42125 7.62162C8.30941 7.67754 8.20876 7.76142 8.09692 7.87325L7.67195 8.29264C7.45387 8.50513 7.11836 8.55545 6.86114 8.46039L6.71016 8.39329C6.4809 8.27027 6.21249 8.08015 5.91612 7.82852C5.64772 7.59926 5.35694 7.33085 5.00466 6.98416C4.73066 6.70457 4.45666 6.4082 4.17148 6.07829C3.90867 5.77074 3.71855 5.50792 3.60112 5.28984L3.53402 5.12209C3.50047 4.99348 3.48928 4.92078 3.48928 4.8425C3.48928 4.64119 3.56198 4.46226 3.70177 4.32246L4.12116 3.8863C4.23299 3.77446 4.31687 3.66822 4.37279 3.57316C4.41752 3.50047 4.4343 3.43896 4.4343 3.38304C4.4343 3.3383 4.41752 3.2712 4.38956 3.2041C4.35042 3.11463 4.28891 3.01398 4.21062 2.90774L2.91333 1.07363C2.85741 0.99534 2.79031 0.939422 2.70643 0.90028C2.61696 0.861137 2.5219 0.83877 2.42684 0.83877ZM7.10158 7.69432L7.01212 8.07456L7.16309 7.68313C7.13514 7.67754 7.11277 7.68313 7.10158 7.69432Z" fill="white"/>
</svg>
