<svg width="41" height="41" viewBox="0 0 41 41" fill="none" xmlns="http://www.w3.org/2000/svg">
<path d="M1.42731 40.0093C1.05531 40.0093 0.701845 39.8605 0.44144 39.6001C0.0880334 39.2467 -0.0606765 38.7259 0.0695259 38.2422L2.41319 29.4815C0.850759 26.5798 0.032288 23.3062 0.032288 19.9953C0.032288 8.96537 8.99765 0 20.0276 0C31.0576 0 40.0229 8.96537 40.0229 19.9953C40.0229 31.0253 31.0576 39.9907 20.0276 39.9907C16.6609 39.9907 13.3688 39.1537 10.4299 37.554L1.79934 39.9535C1.66914 39.9907 1.55752 40.0093 1.42731 40.0093ZM10.6159 34.671C10.8577 34.671 11.0995 34.7456 11.3227 34.8572C13.9454 36.401 16.9585 37.2192 20.0276 37.2192C29.5138 37.2192 37.2329 29.5001 37.2329 20.0139C37.2329 10.5278 29.5138 2.80867 20.0276 2.80867C10.5415 2.80867 2.82234 10.5278 2.82234 20.0139C2.82234 23.0458 3.62214 26.0032 5.12876 28.6073C5.31477 28.9235 5.3706 29.3141 5.2776 29.6675L3.41757 36.624L10.2625 34.7268C10.3741 34.6896 10.5043 34.671 10.6159 34.671Z" fill="white"/>
<path d="M25.1243 30.728C23.9711 30.728 22.7806 30.4676 21.5344 29.9282C20.3626 29.426 19.1908 28.7564 18.0561 27.9194C16.9401 27.101 15.8428 26.1709 14.8384 25.1665C13.834 24.1435 12.9039 23.0647 12.0855 21.9487C11.2485 20.7768 10.5788 19.6236 10.0952 18.489C9.57443 17.2614 9.31404 16.0524 9.31404 14.8991C9.31404 14.0807 9.46281 13.2995 9.74181 12.5741C10.0394 11.8115 10.523 11.1233 11.1555 10.528C12.3459 9.35622 14.0572 8.92845 15.415 9.57946C15.88 9.78406 16.2706 10.1189 16.5683 10.5653L18.7258 13.5971C18.949 13.8947 19.1166 14.2109 19.2468 14.5271C19.3956 14.8991 19.4886 15.2712 19.4886 15.6246C19.4886 16.1082 19.3582 16.5918 19.0978 17.0196C18.9304 17.2986 18.6886 17.6334 18.3724 17.9496L18.1305 18.21C18.2421 18.3588 18.3724 18.5448 18.577 18.768C18.9676 19.2144 19.3954 19.698 19.8604 20.163C20.3254 20.6094 20.7904 21.0559 21.2554 21.4465C21.4786 21.6325 21.6648 21.7813 21.8136 21.8743L22.0738 21.6139C22.4086 21.2791 22.7436 21.0187 23.0784 20.8512C23.6922 20.4606 24.6407 20.3676 25.4777 20.721C25.7753 20.8326 26.0729 21.0001 26.3891 21.2233L29.4955 23.4181C29.9233 23.7157 30.258 24.1249 30.4812 24.5899C30.6672 25.0549 30.7418 25.4641 30.7418 25.8919C30.7418 26.45 30.6114 26.9894 30.3696 27.5102C30.1278 27.9938 29.8488 28.4216 29.514 28.8122C28.9187 29.4632 28.2307 29.9468 27.4867 30.263C26.7427 30.5792 25.9427 30.728 25.1243 30.728ZM14.0571 12.0905C13.9455 12.0905 13.5736 12.0905 13.1086 12.5555C12.7552 12.8903 12.5133 13.2437 12.3459 13.6343C12.1785 14.0249 12.1041 14.4714 12.1041 14.9178C12.1041 15.699 12.2901 16.536 12.6621 17.4288C13.0527 18.3588 13.6294 19.3446 14.3362 20.3304C15.0616 21.3163 15.88 22.3021 16.7915 23.2135C17.7029 24.1063 18.67 24.9433 19.6744 25.6873C20.6416 26.3941 21.6276 26.9522 22.6134 27.38C24.027 27.9938 25.3289 28.1426 26.3891 27.6962C26.7611 27.5474 27.0959 27.287 27.4307 26.9522C27.5981 26.7662 27.7285 26.5802 27.8401 26.3384C27.8959 26.2081 27.9329 26.0593 27.9329 25.9291C27.9329 25.8919 27.9329 25.8361 27.8771 25.7245L24.7709 23.5669C24.6407 23.4739 24.5105 23.3995 24.3989 23.3623C24.3245 23.3995 24.213 23.4553 24.0084 23.6599L23.3016 24.3667C22.7622 24.9061 21.9066 25.0549 21.2184 24.8131L20.8836 24.6643C20.4558 24.4411 19.972 24.1063 19.4326 23.6413C18.9118 23.1949 18.4097 22.7299 17.8703 22.2091C17.3495 21.6697 16.8845 21.1675 16.4381 20.6466C15.9544 20.07 15.6196 19.605 15.3964 19.2144L15.1918 18.7308C15.136 18.5448 15.1173 18.3402 15.1173 18.1542C15.1173 17.6334 15.3034 17.1684 15.6568 16.7964L16.3637 16.071C16.5683 15.8664 16.6427 15.7548 16.6799 15.6804C16.6241 15.5502 16.5497 15.4385 16.4567 15.3083L14.2803 12.2393L14.0571 12.0905Z" fill="white"/>
</svg>
