<svg width="12" height="14" viewBox="0 0 12 14" fill="none" xmlns="http://www.w3.org/2000/svg">
<path d="M5.99901 8.32776C4.63648 8.32776 3.52344 7.21265 3.52344 5.83325C3.52344 4.45389 4.63648 3.34521 5.99901 3.34521C7.36153 3.34521 8.47456 4.46033 8.47456 5.8397C8.47456 7.21909 7.36153 8.32776 5.99901 8.32776ZM5.99901 4.31208C5.16743 4.31208 4.48295 4.99533 4.48295 5.8397C4.48295 6.68409 5.16104 7.36735 5.99901 7.36735C6.83699 7.36735 7.51505 6.68409 7.51505 5.8397C7.51505 4.99533 6.83059 4.31208 5.99901 4.31208Z" fill="white"/>
<path d="M5.99803 13.8648C5.05131 13.8648 4.09818 13.5039 3.35616 12.7884C1.46911 10.9578 -0.616238 8.03787 0.170564 4.5636C0.880606 1.41162 3.61203 0 5.99803 0H6.00442C8.39042 0 11.1218 1.41162 11.8319 4.57005C12.6123 8.04431 10.5269 10.9578 8.63989 12.7884C7.89787 13.5039 6.94475 13.8648 5.99803 13.8648ZM5.99803 0.966865C4.13656 0.966865 1.74417 1.96596 1.11089 4.77631C0.420038 7.81227 2.31348 10.4292 4.02782 12.0858C5.13446 13.1622 6.86799 13.1622 7.97463 12.0858C9.68257 10.4292 11.576 7.81227 10.898 4.77631C10.2583 1.96596 7.85949 0.966865 5.99803 0.966865Z" fill="white"/>
</svg>
